<svg width="10" height="10" viewBox="0 0 10 10" fill="none" xmlns="http://www.w3.org/2000/svg">
<g clip-path="url(#clip0_7_1437)">
<path d="M8.33329 4.16667C8.33329 6.66667 4.99996 9.16667 4.99996 9.16667C4.99996 9.16667 1.66663 6.66667 1.66663 4.16667C1.66663 3.28261 2.01782 2.43476 2.64294 1.80964C3.26806 1.18452 4.1159 0.833332 4.99996 0.833332C5.88401 0.833332 6.73186 1.18452 7.35698 1.80964C7.9821 2.43476 8.33329 3.28261 8.33329 4.16667Z" stroke="#B7B7B7" stroke-linecap="round" stroke-linejoin="round"/>
<path d="M5 5.41667C5.69036 5.41667 6.25 4.85702 6.25 4.16667C6.25 3.47631 5.69036 2.91667 5 2.91667C4.30964 2.91667 3.75 3.47631 3.75 4.16667C3.75 4.85702 4.30964 5.41667 5 5.41667Z" stroke="#B7B7B7" stroke-linecap="round" stroke-linejoin="round"/>
</g>
<defs>
<clipPath id="clip0_7_1437">
<rect width="10" height="10" fill="white"/>
</clipPath>
</defs>
</svg>
