<svg width="94" height="31" viewBox="0 0 94 31" fill="none" xmlns="http://www.w3.org/2000/svg">
<path fill-rule="evenodd" clip-rule="evenodd" d="M23.4621 30.7586H15.3404L9.2502 6.70964C8.96113 5.60339 8.34735 4.6254 7.44451 4.16446C5.19136 3.0061 2.70853 2.08423 0 1.61928V0.693399H13.0833C14.889 0.693399 16.2433 2.08423 16.469 3.69951L19.6289 21.0468L27.7466 0.693399H35.6426L23.4621 30.7586ZM40.1568 30.7586H32.4866L38.8025 0.693399H46.4728L40.1568 30.7586ZM56.3961 9.02235C56.6218 7.40306 57.9761 6.47718 59.5561 6.47718C62.0389 6.2447 64.7435 6.70965 67.0006 7.864L68.3549 1.39083C66.0977 0.464946 63.6149 0 61.3618 0C53.9173 0 48.5002 4.16447 48.5002 9.94423C48.5002 14.3412 52.3373 16.6499 55.0458 18.0407C57.9761 19.4275 59.1046 20.3534 58.8789 21.7402C58.8789 23.8205 56.6218 24.7463 54.3687 24.7463C51.6601 24.7463 48.9516 24.0529 46.4727 22.8946L45.1185 29.3717C47.827 30.5261 50.7573 30.991 53.4658 30.991C61.8132 31.2195 67.0006 27.059 67.0006 20.8143C67.0006 12.9503 56.3961 12.4894 56.3961 9.02235ZM93.8444 30.7586L87.7541 0.693399H81.2124C79.8582 0.693399 78.5039 1.61928 78.0525 3.0061L66.7749 30.7586H74.6708L76.2468 26.3656H85.9484L86.8513 30.7586H93.8444ZM82.341 8.7899L84.5942 20.121H78.2782L82.341 8.7899Z" fill="#172B85"/>
</svg>
