<svg width="18" height="18" viewBox="0 0 18 18" fill="none" xmlns="http://www.w3.org/2000/svg">
<path d="M15 7.5C15 12 9 16.5 9 16.5C9 16.5 3 12 3 7.5C3 5.9087 3.63214 4.38258 4.75736 3.25736C5.88258 2.13214 7.4087 1.5 9 1.5C10.5913 1.5 12.1174 2.13214 13.2426 3.25736C14.3679 4.38258 15 5.9087 15 7.5Z" stroke="white" stroke-width="2" stroke-linecap="round" stroke-linejoin="round"/>
<path d="M9 9.75C10.2426 9.75 11.25 8.74264 11.25 7.5C11.25 6.25736 10.2426 5.25 9 5.25C7.75736 5.25 6.75 6.25736 6.75 7.5C6.75 8.74264 7.75736 9.75 9 9.75Z" stroke="white" stroke-width="2" stroke-linecap="round" stroke-linejoin="round"/>
</svg>
