<svg width="96" height="40" viewBox="0 0 96 40" fill="none" xmlns="http://www.w3.org/2000/svg">
<path fill-rule="evenodd" clip-rule="evenodd" d="M44.2756 30.7623V19.2211H50.2628C52.7162 19.2211 54.787 18.4032 56.4751 16.7902L56.8803 16.3813C59.9639 13.0416 59.7613 7.83895 56.4751 4.74917C54.832 3.11341 52.5812 2.22737 50.2628 2.27281H40.6517V30.7623H44.2756ZM44.276 15.7222V5.7713H50.3542C51.6599 5.7713 52.8981 6.27111 53.8211 7.17987C55.7796 9.08826 55.8246 12.2689 53.9336 14.2455C53.0106 15.2224 51.7049 15.7676 50.3542 15.7222H44.276ZM73.7841 12.7916C72.2311 11.3603 70.1153 10.6333 67.4368 10.6333C63.993 10.6333 61.4045 11.9055 59.6939 14.4273L62.8901 16.4493C64.0605 14.7227 65.6586 13.8594 67.6844 13.8594C68.9674 13.8594 70.2053 14.3365 71.1732 15.1998C72.1185 16.0177 72.6587 17.199 72.6587 18.4486V19.2892C71.2632 18.5167 69.5076 18.1078 67.3468 18.1078C64.8258 18.1078 62.8001 18.6985 61.292 19.9026C59.7839 21.1067 59.0187 22.697 59.0187 24.719C58.9736 26.5592 59.7614 28.3086 61.157 29.49C62.575 30.7623 64.3756 31.3984 66.4914 31.3984C68.9899 31.3984 70.9706 30.2852 72.4787 28.0587H72.6362V30.7623H76.1025V18.7439C76.1025 16.2221 75.3372 14.2229 73.7841 12.7916ZM63.9486 27.1727C63.2057 26.6275 62.7555 25.7414 62.7555 24.7872C62.7555 23.7194 63.2507 22.8334 64.2187 22.1291C65.2093 21.4248 66.4474 21.0613 67.9107 21.0613C69.9368 21.0386 71.5126 21.493 72.6382 22.4017C72.6382 23.9466 72.0304 25.287 70.8372 26.423C69.7567 27.5135 68.2934 28.1269 66.7626 28.1269C65.7495 28.1496 64.759 27.8088 63.9486 27.1727ZM83.8905 39.3273L96 11.2694H92.061L86.4564 25.2643H86.3889L80.6493 11.2694H76.7103L84.6557 29.5127L80.1541 39.3273H83.8905Z" fill="#3C4043"/>
<path d="M31.7648 16.7221C31.7648 15.6089 31.6748 14.4956 31.4947 13.4051H16.2115V19.6983H24.9673C24.6071 21.7203 23.4367 23.5378 21.7261 24.6737V28.7631H26.948C30.0091 25.9233 31.7648 21.7203 31.7648 16.7221Z" fill="#4285F4"/>
<path d="M16.2123 32.7163C20.5789 32.7163 24.2703 31.2623 26.9488 28.7632L21.7268 24.6738C20.2638 25.6734 18.3956 26.2414 16.2123 26.2414C11.9807 26.2414 8.40188 23.3561 7.11891 19.4939H1.73941V23.7196C4.48543 29.2403 10.09 32.7163 16.2123 32.7163Z" fill="#34A853"/>
<path d="M7.11941 19.4939C6.44405 17.4719 6.44405 15.2682 7.11941 13.2235V9.02045H1.73905C-0.579683 13.6324 -0.579683 19.0849 1.73905 23.6969L7.11941 19.4939Z" fill="#FBBC04"/>
<path d="M16.2123 6.47588C18.5306 6.43045 20.759 7.31649 22.4246 8.92953L27.0613 4.24943C24.1127 1.47772 20.2413 -0.0444491 16.2123 0.00098875C10.09 0.00098875 4.48543 3.4997 1.73941 9.02041L7.11891 13.2461C8.40188 9.36119 11.9807 6.47588 16.2123 6.47588Z" fill="#EA4335"/>
</svg>
