<svg width="15" height="15" viewBox="0 0 15 15" fill="none" xmlns="http://www.w3.org/2000/svg">
<path d="M3.08057 11.9194C2.8375 11.6764 2.83794 11.2826 3.08057 11.04L11.0399 3.0806C11.1566 2.96398 11.3147 2.89846 11.4797 2.89846C11.6446 2.89846 11.8028 2.96398 11.9194 3.0806C12.036 3.19723 12.1015 3.3554 12.1015 3.52034C12.1015 3.68527 12.036 3.84344 11.9194 3.96007L3.96003 11.9194C3.84341 12.0361 3.68523 12.1016 3.5203 12.1016C3.35537 12.1016 3.19719 12.0361 3.08057 11.9194Z" fill="#B7B7B7"/>
<path d="M4.18614 3.30663C4.01956 3.14004 3.81347 3.02661 3.61322 2.99129C3.41296 2.95596 3.23494 3.00163 3.11831 3.11826C3.00169 3.23488 2.95602 3.41291 2.99134 3.61316C3.02667 3.81342 3.1401 4.01951 3.30668 4.18609L10.8881 11.7675C11.0546 11.934 11.2607 12.0475 11.461 12.0828C11.6612 12.1181 11.8393 12.0725 11.9559 11.9558C12.0725 11.8392 12.1182 11.6612 12.0829 11.4609C12.0475 11.2607 11.9341 11.0546 11.7675 10.888L4.18614 3.30663Z" fill="#B7B7B7"/>
</svg>
