<svg width="22" height="22" viewBox="0 0 22 22" fill="none" xmlns="http://www.w3.org/2000/svg">
<path d="M20.1667 15.51V18.26C20.1677 18.5153 20.1154 18.768 20.0132 19.0019C19.9109 19.2358 19.7609 19.4458 19.5728 19.6184C19.3846 19.791 19.1625 19.9224 18.9207 20.0042C18.6789 20.0859 18.4226 20.1163 18.1684 20.0933C15.3476 19.7868 12.6381 18.823 10.2575 17.2792C8.0427 15.8718 6.16491 13.994 4.75752 11.7792C3.20833 9.38778 2.24424 6.66509 1.94335 3.83167C1.92045 3.57819 1.95057 3.3227 2.03181 3.0815C2.11305 2.84029 2.24363 2.61864 2.41522 2.43066C2.58682 2.24268 2.79567 2.09249 3.0285 1.98965C3.26132 1.88681 3.513 1.83358 3.76752 1.83334H6.51752C6.96238 1.82896 7.39366 1.9865 7.73097 2.27658C8.06827 2.56666 8.28859 2.9695 8.35085 3.41001C8.46692 4.29007 8.68218 5.15417 8.99252 5.98584C9.11585 6.31394 9.14254 6.67051 9.06943 7.01331C8.99633 7.35612 8.82648 7.67078 8.58002 7.92001L7.41585 9.08417C8.72078 11.3791 10.6209 13.2792 12.9159 14.5842L14.08 13.42C14.3293 13.1736 14.6439 13.0037 14.9867 12.9306C15.3295 12.8575 15.6861 12.8842 16.0142 13.0075C16.8459 13.3178 17.71 13.5331 18.59 13.6492C19.0353 13.712 19.442 13.9363 19.7327 14.2794C20.0234 14.6225 20.1778 15.0605 20.1667 15.51Z" stroke="#7C7C7C" stroke-width="1.5" stroke-linecap="round" stroke-linejoin="round"/>
</svg>
