<svg width="63" height="63" viewBox="0 0 63 63" fill="none" xmlns="http://www.w3.org/2000/svg">
<path fill-rule="evenodd" clip-rule="evenodd" d="M63 31.3391C63 48.6471 48.897 62.6781 31.5 62.6781C14.103 62.6781 0 48.6471 0 31.3391C0 14.031 14.103 0 31.5 0C48.897 0 63 14.031 63 31.3391ZM39.0678 19.6955C43.4496 21.1925 46.6548 23.4341 46.026 27.6057C45.5693 30.6605 43.8608 32.1379 41.5909 32.6552C44.7052 34.2619 45.7665 37.3112 44.7803 40.9984C42.9078 46.3045 38.4568 46.7513 32.5367 45.6422L31.0992 51.3461L27.6289 50.4879L29.0467 44.8604C28.147 44.639 27.2275 44.4019 26.2804 44.1492L24.8567 49.8041L21.3905 48.9458L22.826 43.2302L15.8361 41.4824L17.5604 37.5439C17.5604 37.5439 20.119 38.216 20.0834 38.167C21.0662 38.408 21.5032 37.7732 21.6752 37.3519L25.5705 21.8705C25.614 21.1396 25.359 20.2187 23.9531 19.8699C24.0065 19.8327 21.432 19.2488 21.432 19.2488L22.3554 15.5748L29.3551 17.2932L30.7788 11.6423L34.2471 12.5005L32.853 18.0398C33.7863 18.2494 34.7236 18.463 35.6351 18.6884L37.0193 13.1843L40.4895 14.0426L39.0678 19.6955ZM30.7644 29.1221C33.1283 29.7456 38.2721 31.1023 39.1687 27.545C40.0834 23.9053 35.086 22.8061 32.6391 22.2679C32.3618 22.2069 32.1173 22.1531 31.9178 22.1036L30.1896 28.9734C30.3542 29.0139 30.5477 29.0649 30.7644 29.1221ZM28.0861 40.1826C30.9174 40.9246 37.1096 42.5473 38.0949 38.6274C39.1034 34.6195 33.0996 33.2845 30.1702 32.6331L30.1701 32.6331L30.1696 32.633C29.8426 32.5603 29.5539 32.4961 29.3175 32.4376L27.4114 40.0088C27.6047 40.0565 27.8311 40.1158 28.0845 40.1822L28.0858 40.1825L28.0861 40.1826Z" fill="#F7931A"/>
</svg>
