<svg width="279" height="256" viewBox="0 0 279 256" fill="none" xmlns="http://www.w3.org/2000/svg">
<path d="M211.198 15.3237C220.536 27.6323 209.587 47.5886 223.443 56.8461C236.932 65.8577 253.5 51.0869 266.212 58.8438C285.069 70.3512 281.626 123.005 254.056 155.72C245.765 165.558 238.837 169.386 235.769 180.513C229.181 204.405 252.336 218.618 247.929 230.434C238.008 257.041 85.4234 279.367 24.1991 199.405C-4.39686 162.06 -8.67454 108.132 16.8734 67.1734C63.0376 -6.83793 190.245 -12.2957 211.198 15.3237Z" fill="#F4F7FA"/>
<path d="M204.152 135.177C200.35 136.544 193.949 138.846 186.445 137.204C172.803 134.219 164.372 120.139 162.327 108.775C160.571 99.0131 164.347 89.1055 171.9 69.2885C179.013 50.6252 183.063 46.1344 179.907 40.1768C175.41 31.6833 162.629 32.2178 159.001 21.5881C158.566 20.3125 157.071 15.9319 159.329 12.236C163.194 5.91047 175.343 6.0334 182.307 7.57312C189.025 9.05821 198.801 13.6054 201.087 21.3578C202.744 26.974 199.063 29.5016 201.625 33.9141C204.205 38.353 208.71 37.1329 215.8 42.3712C218.633 44.4636 224.32 48.6648 225.661 54.8574C227.395 62.8656 220.293 66.9548 223.19 72.5583C225.284 76.6065 229.675 75.7952 233.025 79.8098C237.436 85.0955 235.198 92.9416 233.24 99.4483C230.938 107.11 224.72 127.782 204.152 135.177Z" fill="#8DDEE3"/>
<path opacity="0.16" d="M163.435 12.8588C162.172 17.1429 178.874 19.0058 186.838 32.3197C195.406 46.6453 188.632 65.487 185.501 74.1954C180.159 89.0527 174.209 91.3637 173.557 103.966C173.299 108.954 172.761 119.345 180.853 126.951C181.605 127.658 190.114 135.421 200.809 133.953C212.941 132.288 218.662 120.012 223.59 109.435C226.569 103.044 232.519 90.2756 226.945 85.5845C223.538 82.7163 216.608 83.5275 212.207 85.61C205.926 88.5829 203.934 94.5542 202.687 94.0798C201.564 93.6527 202.099 88.398 204.472 82.9794C209.218 72.1431 216.466 71.7361 219.267 62.8984C219.606 61.8276 222.163 53.304 216.917 47.3573C213.892 43.9273 208.193 41.2649 204.587 42.8693C200.51 44.684 200.87 51.1734 199.482 51.1133C198.155 51.0559 197.019 45.0882 196.835 39.0386C196.565 30.1508 198.576 28.4946 197.193 23.8017C195.082 16.6421 188.137 12.8187 187.13 12.2815C177.696 7.25443 164.514 9.19661 163.435 12.8588Z" fill="white"/>
<path d="M186.247 147.847C182.352 146.721 175.796 144.824 171.079 139.223C162.505 129.042 165.582 113.227 171.769 103.204C177.084 94.5951 186.804 89.06 206.246 77.9887C224.557 67.5612 230.782 66.3994 232.405 59.9455C234.718 50.7445 224.406 43.7971 228.859 33.4352C229.393 32.1914 231.228 27.9209 235.514 26.3457C242.852 23.6487 252.223 30.7436 256.589 35.9546C260.8 40.9808 265.295 50.1517 261.769 57.5016C259.214 62.8274 254.619 62.6735 253.594 67.5831C252.562 72.5237 256.904 74.169 258.837 82.3311C259.609 85.5917 261.159 92.1367 257.965 97.7292C253.833 104.96 245.507 104.052 243.927 110.082C242.784 114.438 246.758 116.336 246.616 121.39C246.431 128.045 239.319 132.862 233.342 136.799C226.303 141.435 207.315 153.94 186.247 147.847Z" fill="#85B6FF"/>
<path opacity="0.16" d="M238.283 29.1957C234.368 31.8026 246.091 42.8738 243.176 57.8239C240.039 73.9086 221.869 84.6703 213.473 89.6427C199.147 98.128 192.934 96.4991 183.8 105.931C180.185 109.665 172.654 117.441 173.745 128.022C173.846 129.005 175.155 139.949 184.484 144.968C195.065 150.662 207.92 144.403 218.996 139.011C225.689 135.753 239.059 129.244 237.932 122.382C237.243 118.187 231.296 114.826 226.446 113.911C219.523 112.606 213.886 116.106 213.24 115.019C212.658 114.039 216.671 110.257 222.227 107.408C233.338 101.709 239.257 105.568 247.486 100.304C248.483 99.6659 256.306 94.5059 256.295 86.8556C256.288 82.4431 253.676 77.0882 249.772 76.2596C245.356 75.3227 241.195 80.581 240.156 79.7342C239.163 78.9248 242.364 73.6254 246.36 68.8123C252.234 61.7402 254.933 61.6091 257.067 57.1602C260.326 50.3721 257.538 43.3955 257.121 42.3976C253.219 33.05 241.63 26.9676 238.283 29.1957Z" fill="white"/>
<path d="M229.376 237.625L68.0705 245.941V72.7723L229.376 81.0873V237.625Z" fill="#0075FD"/>
<path d="M68.0706 245.941L10.2267 234.091V83.8271L68.0706 72.7723V245.941Z" fill="#0075FD"/>
<path d="M119.778 75.716V102.79L162.959 104.801V78.5023L119.778 75.716Z" fill="white"/>
<path d="M22.6041 81.4615L46.832 76.8305V103.495L22.6041 106.297V81.4615Z" fill="white"/>
<path d="M158.113 46.0935C158.113 63.7434 131.162 95.95 118.964 109.621C115.929 113.023 110.255 113.023 107.22 109.621C95.0217 95.9491 68.0704 63.7424 68.0704 46.0935C68.0704 23.2826 88.2271 4.79051 113.091 4.79051C137.956 4.7896 158.113 23.2817 158.113 46.0935Z" fill="url(#paint0_linear_7_943)"/>
<path d="M130.845 62.3825C140.651 53.3866 140.651 38.8013 130.845 29.8054C121.04 20.8095 105.141 20.8095 95.3358 29.8054C85.5301 38.8013 85.5301 53.3866 95.3358 62.3825C105.141 71.3784 121.04 71.3784 130.845 62.3825Z" fill="white"/>
<g opacity="0.3">
<path opacity="0.3" d="M112.893 92.6621C115.749 75.4046 128.17 69.8813 126.038 53.5863C123.58 34.7937 105.442 29.7884 105.004 13.0637C104.934 10.3712 105.333 7.77435 106.086 5.28766C84.549 8.37439 68.0695 25.467 68.0695 46.0926C68.0695 63.7424 95.0209 95.9491 107.219 109.62C109.005 111.622 111.706 112.445 114.245 112.09C112.062 104.533 111.997 98.078 112.893 92.6621Z" fill="url(#paint1_linear_7_943)"/>
</g>
<path d="M146.951 119.687L159.118 244.944C159.302 246.841 157.866 248.527 155.924 248.691L90.0932 254.912C86.155 255.104 84.0707 253.145 83.894 251.174L72.2163 121.126C72.0436 119.205 73.9998 117.396 77.8914 117.265L143.118 116.385C145.047 116.352 146.771 117.837 146.951 119.687Z" fill="url(#paint2_linear_7_943)"/>
<path d="M149.941 119.376L162.218 245.384C162.404 247.292 160.961 248.989 159.007 249.154L90.7006 254.937C88.6065 255.115 86.7436 253.638 86.5649 251.656L74.7829 120.82C74.6092 118.889 76.1704 117.279 78.2497 117.243L146.085 116.054C148.025 116.021 149.759 117.515 149.941 119.376Z" fill="url(#paint3_linear_7_943)"/>
<path d="M114.352 120.442C114.413 121.098 113.899 121.643 113.204 121.656C112.507 121.67 111.893 121.148 111.831 120.491C111.769 119.833 112.285 119.29 112.98 119.276C113.677 119.263 114.29 119.784 114.352 120.442Z" fill="url(#paint4_linear_7_943)"/>
<path d="M150.791 160.685L82.0351 163.537L80.2347 145.062L149.121 142.892L150.791 160.685Z" fill="white"/>
<path d="M158.837 246.457L90.7096 252.573L81.1071 154.019L149.93 151.518L158.837 246.457Z" fill="#D8DEE8"/>
<path d="M149.663 148.676L80.8204 151.067L77.9481 121.592L147 120.289L149.663 148.676Z" fill="url(#paint5_linear_7_943)"/>
<path d="M141.482 135.039L116.661 135.71L116.441 133.399L141.267 132.759L141.482 135.039Z" fill="white"/>
<path d="M141.893 139.397L117.083 140.128L116.863 137.817L141.677 137.118L141.893 139.397Z" fill="white"/>
<path d="M110.251 130.186L90.0446 130.669C89.2784 130.687 88.7116 131.293 88.7821 132.017L89.859 143.127C89.9294 143.852 90.6093 144.421 91.3745 144.397L111.552 143.765C112.299 143.741 112.852 143.141 112.784 142.425L111.734 131.453C111.664 130.737 110.999 130.169 110.251 130.186ZM108.875 131.55L101.291 137.179C101.049 137.358 100.705 137.365 100.433 137.197L91.968 131.967L108.875 131.55ZM91.2951 143.057L90.2709 132.482L99.6946 138.296C100.1 138.547 100.56 138.664 101.008 138.652C101.444 138.639 101.87 138.502 102.221 138.242L110.391 132.171L111.374 142.442L91.2951 143.057Z" fill="white"/>
<path d="M162.82 252.933C161.889 252.933 160.976 252.52 160.422 251.756L130.355 210.311L101.262 212.259L83.0098 246.839C82.317 248.151 80.596 248.699 79.1658 248.065C77.7356 247.429 77.1371 245.85 77.8299 244.538L96.8065 208.586C97.2541 207.738 98.1623 207.173 99.1865 207.104L131.611 204.933C132.649 204.865 133.64 205.311 134.215 206.103L165.212 248.83C166.092 250.044 165.734 251.683 164.411 252.491C163.921 252.79 163.368 252.933 162.82 252.933Z" fill="white"/>
<path d="M121.215 256C119.739 256 118.484 254.965 118.352 253.592L114.11 209.322L79.8883 149.465C79.1499 148.174 79.6928 146.579 81.1002 145.901C82.5075 145.224 84.2464 145.722 84.9848 147.013L119.474 207.338C119.651 207.647 119.759 207.985 119.793 208.333L124.085 253.129C124.224 254.581 123.054 255.863 121.471 255.99C121.385 255.996 121.299 256 121.215 256Z" fill="white"/>
<path d="M119.188 234.063C118.146 234.063 117.259 233.332 117.168 232.361C117.07 231.336 117.897 230.433 119.015 230.344L139.944 228.669L132.606 151.116C132.509 150.091 133.336 149.187 134.454 149.098C135.573 149.012 136.556 149.768 136.653 150.794L144.167 230.203C144.264 231.228 143.437 232.131 142.32 232.22L119.368 234.056C119.307 234.061 119.248 234.063 119.188 234.063Z" fill="white"/>
<path d="M156.675 214.072C156.371 214.072 156.068 213.965 155.837 213.753L117.534 178.56C115.59 179.139 109.85 180.84 104.129 182.471C100.012 183.645 96.7093 184.552 94.3094 185.168C92.7939 185.558 91.6952 185.828 90.8823 185.988C92.3393 189.72 97.1579 201.346 100.502 209.348C100.736 209.909 100.43 210.537 99.8198 210.752C99.2084 210.967 98.5236 210.686 98.2894 210.126C98.2636 210.065 95.689 203.903 93.171 197.807C91.6912 194.226 90.5201 191.369 89.6893 189.315C89.1951 188.091 88.8169 187.141 88.5648 186.49C88.0785 185.232 87.8105 184.538 88.7425 184.081C89.0154 183.947 89.3251 183.924 89.6099 183.995C91.855 183.786 107.771 179.196 117.492 176.286C117.917 176.159 118.383 176.261 118.698 176.551L157.515 212.216C157.977 212.641 157.976 213.329 157.514 213.753C157.282 213.966 156.978 214.072 156.675 214.072ZM90.2412 184.372C90.2561 184.389 90.27 184.406 90.2829 184.423C90.27 184.405 90.2551 184.389 90.2412 184.372Z" fill="white"/>
<path d="M117.857 178.407C117.25 178.407 116.733 177.98 116.678 177.414L113.594 145.158C113.536 144.56 114.018 144.033 114.671 143.98C115.323 143.93 115.897 144.37 115.955 144.968L119.04 177.224C119.097 177.822 118.615 178.349 117.963 178.402C117.927 178.406 117.892 178.407 117.857 178.407Z" fill="white"/>
<path d="M159.447 246.268C159.174 246.268 158.906 246.147 158.743 245.923L155.734 241.792C155.474 241.435 155.578 240.953 155.967 240.715C156.355 240.477 156.882 240.573 157.141 240.929L160.15 245.06C160.41 245.417 160.306 245.898 159.917 246.137C159.773 246.225 159.609 246.268 159.447 246.268ZM153.429 238.005C153.156 238.005 152.888 237.884 152.725 237.66L149.716 233.529C149.456 233.172 149.56 232.69 149.949 232.452C150.337 232.214 150.863 232.309 151.122 232.666L154.131 236.797C154.391 237.154 154.287 237.635 153.898 237.874C153.753 237.963 153.59 238.005 153.429 238.005ZM147.409 229.743C147.136 229.743 146.868 229.622 146.705 229.398L143.696 225.267C143.436 224.91 143.54 224.428 143.929 224.189C144.317 223.952 144.843 224.046 145.104 224.403L148.113 228.534C148.372 228.891 148.268 229.373 147.88 229.612C147.734 229.7 147.571 229.743 147.409 229.743ZM141.391 221.481C141.118 221.481 140.85 221.359 140.687 221.135L137.678 217.004C137.418 216.647 137.523 216.166 137.911 215.927C138.3 215.689 138.825 215.785 139.085 216.141L142.094 220.272C142.354 220.629 142.25 221.111 141.861 221.349C141.715 221.438 141.551 221.481 141.391 221.481ZM135.371 213.217C135.098 213.217 134.83 213.096 134.666 212.872L131.657 208.741C131.397 208.384 131.502 207.903 131.89 207.664C132.279 207.425 132.804 207.522 133.064 207.878L136.074 212.009C136.334 212.366 136.229 212.848 135.841 213.086C135.697 213.175 135.533 213.217 135.371 213.217ZM116.768 209.063C116.463 209.063 116.169 208.911 116.017 208.647L113.501 204.246C113.284 203.866 113.444 203.397 113.858 203.198C114.272 202.998 114.783 203.145 115 203.525L117.516 207.925C117.733 208.305 117.574 208.774 117.16 208.973C117.035 209.034 116.901 209.063 116.768 209.063ZM121.987 209.001C121.548 209.001 121.176 208.689 121.144 208.28C121.11 207.853 121.46 207.481 121.926 207.45L127.328 207.089C127.789 207.055 128.199 207.379 128.233 207.806C128.267 208.234 127.916 208.606 127.451 208.636L122.049 208.998C122.028 209.001 122.007 209.001 121.987 209.001ZM111.737 200.262C111.432 200.262 111.138 200.111 110.986 199.846L108.47 195.446C108.253 195.066 108.413 194.597 108.827 194.397C109.24 194.198 109.752 194.345 109.969 194.724L112.485 199.125C112.702 199.505 112.543 199.974 112.129 200.173C112.004 200.234 111.869 200.262 111.737 200.262ZM106.705 191.462C106.4 191.462 106.106 191.311 105.954 191.046L103.438 186.645C103.221 186.265 103.381 185.797 103.795 185.597C104.209 185.398 104.72 185.544 104.937 185.924L107.453 190.325C107.67 190.704 107.511 191.173 107.097 191.373C106.972 191.433 106.838 191.462 106.705 191.462ZM101.673 182.661C101.368 182.661 101.074 182.509 100.922 182.245L98.4064 177.844C98.189 177.464 98.3488 176.995 98.7627 176.796C99.1766 176.596 99.6877 176.743 99.9051 177.123L102.421 181.523C102.638 181.903 102.479 182.372 102.065 182.571C101.94 182.632 101.806 182.661 101.673 182.661ZM96.6417 173.86C96.337 173.86 96.0432 173.709 95.8914 173.444L93.3754 169.044C93.158 168.664 93.3178 168.195 93.7317 167.995C94.1456 167.796 94.6567 167.943 94.8741 168.322L97.3901 172.723C97.6074 173.103 97.4476 173.572 97.0338 173.771C96.9087 173.831 96.7737 173.86 96.6417 173.86ZM91.6097 165.059C91.305 165.059 91.0113 164.908 90.8594 164.643L88.3434 160.242C88.1261 159.863 88.2859 159.394 88.6997 159.194C89.1136 158.995 89.6247 159.141 89.8421 159.521L92.3581 163.922C92.5754 164.301 92.4156 164.77 92.0018 164.97C91.8767 165.031 91.7427 165.059 91.6097 165.059ZM86.5788 156.259C86.2741 156.259 85.9803 156.108 85.8284 155.843L84.822 154.082L84.4548 150.82C84.4072 150.394 84.7446 150.012 85.2101 149.968C85.6756 149.923 86.0905 150.234 86.1391 150.661L86.4726 153.626L87.3281 155.122C87.5455 155.502 87.3857 155.971 86.9718 156.17C86.8447 156.23 86.7108 156.259 86.5788 156.259ZM84.7387 146.573C84.3099 146.573 83.9427 146.276 83.898 145.877L83.3412 140.934C83.2936 140.508 83.631 140.127 84.0965 140.082C84.56 140.037 84.9769 140.348 85.0255 140.775L85.5823 145.717C85.6299 146.143 85.2925 146.525 84.827 146.57C84.7972 146.572 84.7674 146.573 84.7387 146.573Z" fill="url(#paint6_linear_7_943)"/>
<path d="M102.632 187.283C105.238 187.283 107.35 185.345 107.35 182.955C107.35 180.565 105.238 178.627 102.632 178.627C100.027 178.627 97.9151 180.565 97.9151 182.955C97.9151 185.345 100.027 187.283 102.632 187.283Z" fill="url(#paint7_linear_7_943)"/>
<g opacity="0.48">
<path opacity="0.48" d="M133.528 205.878C126.906 184.652 107.599 186.774 101.825 167.595C97.0824 151.843 108.017 143.538 101.384 130.35C98.2645 124.148 92.7998 119.954 87.1326 117.087L78.2497 117.243C76.1704 117.279 74.6092 118.889 74.7829 120.82L86.5649 251.655C86.7436 253.637 88.6065 255.114 90.7006 254.937L146.706 250.194C143.126 246.027 139.727 240.926 137.369 234.799C132.377 221.831 137.19 217.615 133.528 205.878Z" fill="white"/>
</g>
<path d="M211.298 153.369C218.811 150.002 233.465 162.194 240.596 173.873C243.437 178.527 246.774 183.99 245.955 190.486C244.504 202.001 230.58 212.103 211.414 215.475C210.874 213.706 210.336 211.939 209.796 210.171C211.891 208.168 215.025 205.278 219.03 201.966C225.182 196.879 226.446 196.539 226.741 194.933C227.707 189.672 212.96 185.268 207.714 176.017C203.205 168.064 205.527 155.955 211.298 153.369Z" fill="url(#paint8_linear_7_943)"/>
<path d="M221.169 245.923C221.169 245.923 219.935 248.715 220.548 249.807C221.162 250.9 224.121 250.209 228.295 250.794C232.468 251.38 235.348 252.275 235.579 251.482C235.81 250.689 227.162 246.502 226.471 245.923C225.78 245.344 221.169 245.923 221.169 245.923Z" fill="url(#paint9_linear_7_943)"/>
<path d="M222.274 241.75L225.192 245.923C225.192 245.923 223.848 247.14 221.563 246.687L218.353 242.733L222.274 241.75Z" fill="url(#paint10_linear_7_943)"/>
<path opacity="0.3" d="M207.715 176.017C203.205 168.064 205.527 155.955 211.298 153.369C212.812 152.69 214.618 152.653 216.591 153.106C215.552 155.859 215.759 157.849 216.271 159.259C218.557 165.546 228.444 164.83 231.532 171.987C233.485 176.511 230.38 178.756 233.151 182.382C236.022 186.14 240.719 185.51 242.169 189.17C243.25 191.897 241.119 193.449 241.938 195.746C242.166 196.386 242.616 197.029 243.372 197.64C238.293 206.021 226.474 212.825 211.414 215.475C210.874 213.706 210.336 211.939 209.796 210.171C211.891 208.168 215.025 205.278 219.03 201.966C225.182 196.879 226.446 196.539 226.741 194.933C227.708 189.672 212.961 185.268 207.715 176.017Z" fill="url(#paint11_linear_7_943)"/>
<path d="M216.426 155.864C216.101 167.918 216.283 180.951 217.234 194.825C218.449 212.54 220.725 228.812 223.507 243.435C222.271 243.795 221.036 244.156 219.799 244.517C207.088 233.155 203.284 223.16 202.243 215.97C201.506 210.887 202.621 210.451 201.627 204.09C199.736 191.977 194.8 187.829 191.334 176.488C190.033 172.231 188.585 165.802 188.677 157.42C197.926 156.901 207.176 156.382 216.426 155.864Z" fill="url(#paint12_linear_7_943)"/>
<path d="M225.531 134.274C225.3 134.322 224.298 134.628 223.902 138.469C222.946 147.729 228.203 151.478 226.908 156.5C225.666 161.32 219.332 163.659 212.811 166.066C208.454 167.675 194.976 172.65 187.138 167.056C183.839 164.701 183.479 161.858 181.125 151.409C175.146 124.86 172.83 122.579 175.345 116.83C179.663 106.96 191.226 102.873 193.149 102.193C213.662 94.9411 237.886 108.269 247.458 123.579C248.719 125.595 256.246 137.635 250.957 143.346C247.757 146.801 240.404 147.359 235.552 145.003C229.068 141.857 227.69 133.819 225.531 134.274Z" fill="url(#paint13_linear_7_943)"/>
<path d="M247.95 141.297C248.015 141.297 248.079 141.284 248.142 141.258C248.374 141.161 248.476 140.91 248.371 140.697C248.195 140.343 243.961 132.006 234.176 128.717C233.936 128.635 233.671 128.749 233.584 128.969C233.496 129.189 233.619 129.432 233.859 129.512C243.271 132.678 247.488 140.965 247.53 141.048C247.607 141.205 247.775 141.297 247.95 141.297Z" fill="url(#paint14_linear_7_943)"/>
<path d="M188.755 113.437C190.049 116.67 186.164 119.472 187.83 122.983C190.216 128.015 199.7 125.432 203.091 130.408C207.11 136.304 197.907 145.977 201.704 149.288C203.434 150.796 205.433 148.864 210.49 149.924C217.694 151.434 219.858 156.656 223.208 155.863C224.262 155.615 225.54 154.737 226.614 152.036C227.082 153.534 227.305 154.958 226.907 156.5C225.665 161.32 219.331 163.659 212.81 166.066C208.452 167.675 194.975 172.65 187.137 167.056C183.838 164.701 183.478 161.858 181.124 151.409C175.146 124.86 172.829 122.579 175.344 116.831C176.716 113.696 178.818 111.148 181.108 109.104C186.048 110.105 188.077 111.744 188.755 113.437Z" fill="url(#paint15_linear_7_943)"/>
<path d="M201.155 133.722C200.601 134.184 194.99 138.718 188.24 137.17C182.361 135.822 178.751 130.578 178.119 126.165C176.615 115.671 191.518 106.863 189.681 104.739C188.587 103.475 182.719 105.924 178.813 108.134C174.757 110.428 163.799 116.625 161.464 128.786C161.265 129.819 158.689 144.319 167.711 150.306C176.053 155.843 192.392 152.831 203.459 139.735C202.69 137.73 201.922 135.726 201.155 133.722Z" fill="url(#paint16_linear_7_943)"/>
<path d="M237.336 124.137L230.655 143.718C230.436 144.36 229.799 144.805 229.066 144.829L193.11 145.994C191.983 146.031 191.12 145.084 191.359 144.073L196.009 124.412C196.177 123.701 196.851 123.185 197.644 123.162L235.633 122.077C236.821 122.043 237.692 123.095 237.336 124.137Z" fill="#D8DEE8"/>
<path d="M237.016 124.78L230.531 143.785C230.319 144.408 229.7 144.841 228.99 144.863L194.092 145.994C192.999 146.03 192.161 145.111 192.393 144.129L196.906 125.047C197.069 124.357 197.724 123.857 198.493 123.835L235.362 122.782C236.516 122.749 237.36 123.77 237.016 124.78Z" fill="url(#paint17_linear_7_943)"/>
<path d="M192.393 144.129L196.701 125.915C197.431 127.5 198.374 128.301 199.276 128.71C201.874 129.888 203.895 127.766 209.566 127.968C211.735 128.046 216.169 128.202 218.932 130.832C221.528 133.303 220.424 135.842 222.053 139.317C222.876 141.072 224.401 143.06 227.342 144.916L194.092 145.993C192.999 146.03 192.161 145.111 192.393 144.129Z" fill="url(#paint18_linear_7_943)"/>
<path d="M214.293 100.307C213.911 101.538 214.717 102.816 216.073 103.117C217.716 103.48 219.717 103.984 220.581 104.437C222.167 105.27 215.75 104.308 209.847 104.181C206.162 104.102 203.409 103.722 201.86 103.448C201.444 103.375 201.412 102.842 201.814 102.722C203.289 102.281 205.687 101.634 207.713 101.4C210.222 101.11 212.913 96.0311 212.913 96.0311L215.064 97.823L214.293 100.307Z" fill="url(#paint19_linear_7_943)"/>
<path d="M235.651 130.378L235.243 129.766C234.882 128.495 233.551 127.664 232.13 127.825L229.986 128.067C229.315 128.143 228.862 128.729 228.999 129.336C229.199 130.214 229.712 131.264 231.029 131.182C233.267 131.044 234.697 134.036 234.697 134.036L235.556 132.926C236.141 132.17 236.178 131.168 235.651 130.378Z" fill="url(#paint20_linear_7_943)"/>
<path d="M219.085 97.7037C220.94 97.4515 223.018 96.021 222.977 94.8401C222.922 93.2157 218.874 92.3261 216.831 91.8772C214.781 91.4265 213.912 91.5895 213.325 91.9992C212.726 92.418 212.332 93.1674 212.203 93.8139C212.132 94.1663 212.129 94.6507 212.195 95.6168C212.253 96.4736 212.236 96.4363 212.26 96.6894C212.319 97.2976 212.499 98.3675 213.145 99.8499C213.414 99.5794 213.771 99.2562 214.221 98.9366C214.394 98.8137 215.08 98.3393 215.858 98.0516C217.195 97.5571 217.96 97.8567 219.085 97.7037Z" fill="url(#paint21_linear_7_943)"/>
<path d="M212.159 98.1963C212.159 98.1963 212.279 100.566 214.714 101.607C216.893 102.539 219.786 98.3639 218.99 96.7695C218.725 96.2378 217.902 95.6596 217.06 95.4802C216.563 95.3746 216.318 95.4656 215.509 95.278C214.762 95.105 214.617 94.9457 214.328 94.9994C213.968 95.0659 213.509 95.4419 213.164 96.9152C212.986 96.3406 212.589 95.9555 212.159 95.9318C212.09 95.9282 211.892 95.9455 211.729 96.0411C211.141 96.388 211.256 97.2667 212.159 98.1963Z" fill="url(#paint22_linear_7_943)"/>
<defs>
<linearGradient id="paint0_linear_7_943" x1="107.283" y1="31.0979" x2="146.252" y2="140.507" gradientUnits="userSpaceOnUse">
<stop stop-color="#AA80F9"/>
<stop offset="0.9964" stop-color="#6165D7"/>
</linearGradient>
<linearGradient id="paint1_linear_7_943" x1="91.0491" y1="36.8802" x2="130.018" y2="146.289" gradientUnits="userSpaceOnUse">
<stop stop-color="#AA80F9"/>
<stop offset="0.9964" stop-color="#6165D7"/>
</linearGradient>
<linearGradient id="paint2_linear_7_943" x1="69.6406" y1="184.061" x2="161.469" y2="187.787" gradientUnits="userSpaceOnUse">
<stop stop-color="#444B8C"/>
<stop offset="0.9964" stop-color="#26264F"/>
</linearGradient>
<linearGradient id="paint3_linear_7_943" x1="108.633" y1="205.618" x2="120.683" y2="173.015" gradientUnits="userSpaceOnUse">
<stop stop-color="#444B8C"/>
<stop offset="0.9964" stop-color="#26264F"/>
</linearGradient>
<linearGradient id="paint4_linear_7_943" x1="115.226" y1="115.715" x2="41.2805" y2="311.292" gradientUnits="userSpaceOnUse">
<stop stop-color="#FFC444"/>
<stop offset="0.9964" stop-color="#F36F56"/>
</linearGradient>
<linearGradient id="paint5_linear_7_943" x1="82.8248" y1="91.9756" x2="141.23" y2="199.798" gradientUnits="userSpaceOnUse">
<stop stop-color="#FF9085"/>
<stop offset="1" stop-color="#FB6FBB"/>
</linearGradient>
<linearGradient id="paint6_linear_7_943" x1="90.224" y1="137.791" x2="133.719" y2="255.81" gradientUnits="userSpaceOnUse">
<stop stop-color="#AA80F9"/>
<stop offset="0.9964" stop-color="#6165D7"/>
</linearGradient>
<linearGradient id="paint7_linear_7_943" x1="89.2567" y1="204.732" x2="5.13071" y2="367.464" gradientUnits="userSpaceOnUse">
<stop stop-color="#FFC444"/>
<stop offset="0.3138" stop-color="#FBA94A"/>
<stop offset="0.9964" stop-color="#F36F56"/>
</linearGradient>
<linearGradient id="paint8_linear_7_943" x1="246.082" y1="184.137" x2="205.343" y2="184.137" gradientUnits="userSpaceOnUse">
<stop stop-color="#444B8C"/>
<stop offset="0.9964" stop-color="#3E4177"/>
</linearGradient>
<linearGradient id="paint9_linear_7_943" x1="235.583" y1="248.73" x2="220.378" y2="248.73" gradientUnits="userSpaceOnUse">
<stop stop-color="#311944"/>
<stop offset="1" stop-color="#6B3976"/>
</linearGradient>
<linearGradient id="paint10_linear_7_943" x1="218.283" y1="224.285" x2="222.777" y2="254.954" gradientUnits="userSpaceOnUse">
<stop stop-color="#311944"/>
<stop offset="1" stop-color="#A03976"/>
</linearGradient>
<linearGradient id="paint11_linear_7_943" x1="246.082" y1="184.14" x2="205.343" y2="184.14" gradientUnits="userSpaceOnUse">
<stop stop-color="#444B8C"/>
<stop offset="0.9964" stop-color="#3E4177"/>
</linearGradient>
<linearGradient id="paint12_linear_7_943" x1="223.507" y1="200.19" x2="188.673" y2="200.19" gradientUnits="userSpaceOnUse">
<stop stop-color="#444B8C"/>
<stop offset="0.9964" stop-color="#3E4177"/>
</linearGradient>
<linearGradient id="paint13_linear_7_943" x1="201.048" y1="92.7035" x2="222.576" y2="176.262" gradientUnits="userSpaceOnUse">
<stop stop-color="#AA80F9"/>
<stop offset="0.9964" stop-color="#6165D7"/>
</linearGradient>
<linearGradient id="paint14_linear_7_943" x1="241.605" y1="133.143" x2="237.856" y2="146.406" gradientUnits="userSpaceOnUse">
<stop stop-color="#AA80F9"/>
<stop offset="0.9964" stop-color="#6165D7"/>
</linearGradient>
<linearGradient id="paint15_linear_7_943" x1="186.599" y1="96.4259" x2="208.127" y2="179.985" gradientUnits="userSpaceOnUse">
<stop stop-color="#AA80F9"/>
<stop offset="0.9964" stop-color="#6165D7"/>
</linearGradient>
<linearGradient id="paint16_linear_7_943" x1="170.377" y1="100.605" x2="191.905" y2="184.164" gradientUnits="userSpaceOnUse">
<stop stop-color="#AA80F9"/>
<stop offset="0.9964" stop-color="#6165D7"/>
</linearGradient>
<linearGradient id="paint17_linear_7_943" x1="219.078" y1="125.516" x2="205.736" y2="151.737" gradientUnits="userSpaceOnUse">
<stop offset="0.494" stop-color="#EBEFF2"/>
<stop offset="1" stop-color="white"/>
</linearGradient>
<linearGradient id="paint18_linear_7_943" x1="194.819" y1="152.364" x2="210.924" y2="133.511" gradientUnits="userSpaceOnUse">
<stop offset="0.494" stop-color="#EBEFF2"/>
<stop offset="1" stop-color="white"/>
</linearGradient>
<linearGradient id="paint19_linear_7_943" x1="208.789" y1="85.1871" x2="211.26" y2="108.147" gradientUnits="userSpaceOnUse">
<stop stop-color="#311944"/>
<stop offset="1" stop-color="#A03976"/>
</linearGradient>
<linearGradient id="paint20_linear_7_943" x1="236.022" y1="130.92" x2="228.974" y2="130.92" gradientUnits="userSpaceOnUse">
<stop stop-color="#311944"/>
<stop offset="1" stop-color="#A03976"/>
</linearGradient>
<linearGradient id="paint21_linear_7_943" x1="205.407" y1="103.651" x2="218.709" y2="91.4764" gradientUnits="userSpaceOnUse">
<stop stop-color="#311944"/>
<stop offset="1" stop-color="#6B3976"/>
</linearGradient>
<linearGradient id="paint22_linear_7_943" x1="211.437" y1="88.2837" x2="213.825" y2="94.7899" gradientUnits="userSpaceOnUse">
<stop stop-color="#311944"/>
<stop offset="1" stop-color="#A03976"/>
</linearGradient>
</defs>
</svg>
